<svg xmlns="http://www.w3.org/2000/svg" width="865" height="865" viewBox="0 0 865 865" fill="none"><path d="M553.24 548.846C549.765 545.501 551.142 540.976 556.388 538.747C561.633 536.517 568.649 537.435 572.19 540.714C596.976 564.322 585.042 583.471 573.567 601.833C564.912 615.735 556.584 629.048 571.928 642.426C575.665 645.705 574.551 650.23 569.502 652.59C564.453 654.951 557.306 654.295 553.568 651.016C530.815 631.146 541.372 614.162 552.453 596.455C561.699 581.569 571.403 566.093 553.24 548.846ZM124.672 396.311H607.598C613.893 396.311 619.007 401.426 619.007 407.722V488.12H777.229C786.802 488.12 795.523 484.186 801.818 477.89C808.112 471.595 812.047 462.873 812.047 453.298V269.679C812.047 260.105 808.112 251.383 801.818 245.088C795.523 238.792 786.802 234.857 777.229 234.857H86.8377C77.2644 234.857 68.5436 238.792 62.2488 245.088C55.8885 251.383 51.9543 260.105 51.9543 269.679V453.298C51.9543 462.873 55.8885 471.595 62.1832 477.89C68.478 484.186 77.1989 488.12 86.7722 488.12H113.197V407.722C113.263 401.426 118.377 396.311 124.672 396.311ZM596.189 419.132H136.081V485.3H596.189V419.132ZM128.868 301.419C122.574 301.419 117.459 296.304 117.459 290.009C117.459 283.713 122.574 278.598 128.868 278.598H743.526C749.82 278.598 754.935 283.713 754.935 290.009C754.935 296.304 749.82 301.419 743.526 301.419H128.868ZM675.529 421.755C684.447 421.755 691.659 428.969 691.659 437.887C691.659 446.806 684.447 454.02 675.529 454.02C666.612 454.02 659.399 446.806 659.399 437.887C659.399 428.969 666.677 421.755 675.529 421.755ZM742.87 421.755C751.788 421.755 759 428.969 759 437.887C759 446.806 751.788 454.02 742.87 454.02C733.952 454.02 726.74 446.806 726.74 437.887C726.74 428.969 733.952 421.755 742.87 421.755ZM86.8377 211.971H777.229C793.097 211.971 807.522 218.463 817.948 228.89C828.374 239.317 834.865 253.744 834.865 269.614V453.298C834.865 469.168 828.374 483.595 817.948 494.022C807.522 504.449 793.097 510.942 777.229 510.942H86.8377C70.9697 510.942 56.5442 504.449 46.1185 494.022C35.6272 483.595 29.1357 469.168 29.1357 453.298V269.679C29.1357 253.81 35.6272 239.382 46.0529 228.955C56.5442 218.463 70.9697 211.971 86.8377 211.971ZM128.868 354.669C122.574 354.669 117.459 349.554 117.459 343.258C117.459 336.963 122.574 331.848 128.868 331.848H743.526C749.82 331.848 754.935 336.963 754.935 343.258C754.935 349.554 749.82 354.669 743.526 354.669H128.868ZM169.26 548.846C165.785 545.501 167.162 540.976 172.407 538.747C177.653 536.517 184.669 537.435 188.21 540.714C212.995 564.322 201.061 583.471 189.587 601.833C180.931 615.735 172.604 629.048 187.947 642.426C191.685 645.705 190.57 650.23 185.521 652.59C180.472 654.951 173.325 654.295 169.588 651.016C146.835 631.146 157.392 614.162 168.473 596.455C177.718 581.569 187.357 566.093 169.26 548.846ZM265.255 548.846C261.78 545.501 263.157 540.976 268.402 538.747C273.648 536.517 280.664 537.435 284.205 540.714C308.99 564.322 297.057 583.471 285.582 601.833C276.926 615.735 268.599 629.048 283.942 642.426C287.68 645.705 286.565 650.23 281.516 652.59C276.467 654.951 269.32 654.295 265.583 651.016C242.83 631.146 253.387 614.162 264.468 596.455C273.713 581.569 283.352 566.093 265.255 548.846ZM361.25 548.846C357.775 545.501 359.152 540.976 364.397 538.747C369.643 536.517 376.659 537.435 380.2 540.714C404.985 564.322 393.052 583.471 381.577 601.833C372.922 615.735 364.594 629.048 379.938 642.426C383.675 645.705 382.56 650.23 377.511 652.59C372.463 654.951 365.315 654.295 361.578 651.016C338.825 631.146 349.382 614.162 360.463 596.455C369.709 581.569 379.413 566.093 361.25 548.846ZM457.245 548.846C453.77 545.501 455.147 540.976 460.392 538.747C465.638 536.517 472.654 537.435 476.195 540.714C500.981 564.322 489.047 583.471 477.572 601.833C468.917 615.735 460.589 629.048 475.933 642.426C479.67 645.705 478.555 650.23 473.507 652.59C468.458 654.951 461.31 654.295 457.573 651.016C434.82 631.146 445.442 614.162 456.458 596.455C465.704 581.569 475.408 566.093 457.245 548.846Z" fill="#E56D26"></path></svg>