<svg xmlns="http://www.w3.org/2000/svg" version="1.1" xmlns:xlink="http://www.w3.org/1999/xlink" width="512" height="512" x="0" y="0" viewBox="0 0 512 512" style="enable-background:new 0 0 512 512" xml:space="preserve" class=""><g transform="matrix(0.65,0,0,0.65,89.60005540847777,89.60007877349852)"><path d="M454.976 43.056c-3.591-3.588-9.411-3.591-13.003 0l-95.329 95.326a9.193 9.193 0 0 0 6.501 15.695 9.17 9.17 0 0 0 6.502-2.692l95.329-95.326c3.59-3.592 3.59-9.413 0-13.003zM480.9 68.571a9.198 9.198 0 0 0-13.003 0l-95.328 95.328a9.197 9.197 0 0 0-.001 13.003 9.17 9.17 0 0 0 6.502 2.692 9.17 9.17 0 0 0 6.502-2.692L480.9 81.573a9.193 9.193 0 0 0 0-13.002z" fill="#e56d26" opacity="1" data-original="#000000" class=""></path><path d="M390.969 229.548 509.307 111.21a9.194 9.194 0 0 0 0-13.003c-3.592-3.588-9.412-3.591-13.003 0L377.968 216.545c-14.579 14.578-36.871 18.403-55.47 9.521a9.193 9.193 0 0 0-10.839 2.193l-40.209 45.303c-.016.017-.034.032-.05.05-.016.018-.028.037-.044.055L97.567 469.464l-.131.152a30.828 30.828 0 0 1-1.662 1.813c-11.475 11.474-30.145 11.473-41.615 0-5.558-5.557-8.619-12.948-8.619-20.808s3.061-15.25 8.629-20.818a29.392 29.392 0 0 1 1.803-1.654c.052-.043.102-.087.152-.131l108.648-96.434a9.194 9.194 0 0 0 .773-12.979c-3.371-3.799-9.183-4.146-12.979-.773L43.99 414.202a47.858 47.858 0 0 0-2.833 2.609c-9.031 9.031-14.005 21.038-14.005 33.81 0 12.771 4.973 24.779 14.004 33.81 9.323 9.321 21.566 13.982 33.812 13.981 12.241 0 24.487-4.659 33.803-13.976a48.095 48.095 0 0 0 2.616-2.839l132.432-149.206 132.434 149.208a47.417 47.417 0 0 0 2.609 2.834c9.321 9.321 21.565 13.981 33.809 13.981 12.245 0 24.49-4.661 33.812-13.982 18.64-18.643 18.64-48.975.005-67.613a47.722 47.722 0 0 0-2.838-2.615l-152.391-135.26 29.815-33.592c24.157 8.559 51.491 2.597 69.895-15.804zm40.545 198.471.152.131a30.828 30.828 0 0 1 1.813 1.662c11.473 11.474 11.473 30.143.001 41.615-11.475 11.473-30.144 11.473-41.622-.005a30.482 30.482 0 0 1-1.79-1.96L256.111 318.54l22.939-25.845 152.464 135.324z" fill="#e56d26" opacity="1" data-original="#000000" class=""></path><path d="M427.379 16.278a9.198 9.198 0 0 0-13.003 0L296.04 134.617c-18.406 18.404-24.366 45.735-15.807 69.897l-36.415 32.322-34.998-31.064c18.099-35.612 11.492-78.851-17.222-107.566-28.518-28.518-61.55-48.587-93.011-56.508-32.843-8.267-61.001-2.748-79.295 15.545s-23.814 46.455-15.545 79.296c7.922 31.459 27.99 64.491 56.51 93.008 28.714 28.716 71.952 35.323 107.566 17.223l34.659 39.048a9.17 9.17 0 0 0 6.88 3.09 9.159 9.159 0 0 0 6.1-2.318l81.866-72.664a9.196 9.196 0 0 0 2.193-10.839c-8.884-18.601-5.058-40.891 9.521-55.468L427.379 29.281a9.194 9.194 0 0 0 0-13.003zM210.131 266.737l-33.468-37.706a9.192 9.192 0 0 0-11.702-1.722c-29.478 18.177-67.188 13.754-91.704-10.763-26.204-26.203-44.557-56.21-51.68-84.497-6.625-26.317-2.819-48.267 10.718-61.803C45.83 56.708 67.78 52.904 94.096 59.53c28.287 7.122 58.296 25.474 84.498 51.678 24.516 24.515 28.94 62.225 10.762 91.703a9.196 9.196 0 0 0 1.722 11.702l38.888 34.516-19.835 17.608z" fill="#e56d26" opacity="1" data-original="#000000" class=""></path></g></svg>