<svg xmlns="http://www.w3.org/2000/svg" width="865" height="865" viewBox="0 0 865 865" fill="none"><path d="M311.083 700.878C344.946 699.118 381.156 698.169 418.615 698.169C611.704 698.169 768.232 723.329 768.232 754.357C768.232 785.386 611.704 810.546 418.615 810.546C225.527 810.546 68.998 785.386 68.998 754.357C68.998 735.266 128.258 718.397 218.834 708.245" stroke="#E56D26" stroke-width="20" stroke-linecap="round" stroke-linejoin="round"></path><path d="M276.584 382.888C367.094 382.888 440.467 309.515 440.467 219.005C440.467 128.495 367.094 55.1221 276.584 55.1221C186.074 55.1221 112.701 128.495 112.701 219.005C112.701 309.515 186.074 382.888 276.584 382.888Z" stroke="#E56D26" stroke-width="20" stroke-linecap="round" stroke-linejoin="round"></path><path d="M297.097 554.162L311.007 734.752C311.259 738.05 310.828 741.364 309.74 744.487C308.652 747.611 306.93 750.476 304.683 752.902C302.435 755.329 299.711 757.265 296.68 758.59C293.649 759.914 290.378 760.598 287.07 760.599H247.876C244.568 760.598 241.297 759.914 238.266 758.59C235.235 757.265 232.511 755.329 230.263 752.902C228.016 750.476 226.294 747.611 225.206 744.487C224.118 741.364 223.687 738.05 223.939 734.752L237.862 554.1M268.865 448.44V365.619C268.869 357.779 271.985 350.262 277.53 344.719C283.074 339.177 290.593 336.063 298.433 336.063H301.654C305.536 336.063 309.379 336.828 312.965 338.313C316.55 339.799 319.808 341.976 322.553 344.72C325.297 347.464 327.474 350.723 328.96 354.308C330.445 357.894 331.209 361.737 331.209 365.619" stroke="#E56D26" stroke-width="20" stroke-linecap="round" stroke-linejoin="round"></path><path d="M306.238 410.982H331.211" stroke="#E56D26" stroke-width="20" stroke-linecap="round" stroke-linejoin="round"></path><path d="M206.346 410.982H231.318" stroke="#E56D26" stroke-width="20" stroke-linecap="round" stroke-linejoin="round"></path><path d="M203.75 237.211L285.685 155.275" stroke="#E56D26" stroke-width="20" stroke-linecap="round" stroke-linejoin="round"></path><path d="M325.494 285.087L360.993 249.588" stroke="#E56D26" stroke-width="20" stroke-linecap="round" stroke-linejoin="round"></path><path d="M294.789 200.801L349.417 146.173" stroke="#E56D26" stroke-width="20" stroke-linecap="round" stroke-linejoin="round"></path><path d="M687.855 498.388H718.285V385.274C718.285 382.158 717.047 379.169 714.843 376.966C712.64 374.762 709.651 373.524 706.535 373.524" stroke="#E56D26" stroke-width="20" stroke-linecap="round" stroke-linejoin="round"></path><path d="M683.949 410.982H755.746" stroke="#E56D26" stroke-width="20" stroke-linecap="round" stroke-linejoin="round"></path><path d="M518.508 410.982H563.309" stroke="#E56D26" stroke-width="20" stroke-linecap="round" stroke-linejoin="round"></path><path d="M605.163 373.524C595.288 373.524 585.817 377.447 578.834 384.43C571.852 391.413 567.929 400.884 567.929 410.759V523.36H680.83V395.101C680.828 392.267 681.385 389.46 682.469 386.842C683.553 384.223 685.142 381.844 687.146 379.84C689.15 377.836 691.529 376.247 694.147 375.163C696.766 374.08 699.572 373.523 702.406 373.524H605.163ZM106.459 448.442H431.103C431.103 474.935 420.579 500.343 401.846 519.076C383.113 537.809 357.705 548.333 331.213 548.333H206.35C179.857 548.333 154.449 537.809 135.716 519.076C116.983 500.343 106.459 474.935 106.459 448.442Z" stroke="#E56D26" stroke-width="20" stroke-linecap="round" stroke-linejoin="round"></path><path d="M780.717 426.264C789.158 426.264 796 419.421 796 410.981C796 402.54 789.158 395.697 780.717 395.697C772.276 395.697 765.434 402.54 765.434 410.981C765.434 419.421 772.276 426.264 780.717 426.264Z" stroke="#E56D26" stroke-width="20" stroke-linecap="round" stroke-linejoin="round"></path><path d="M493.531 426.264C501.972 426.264 508.815 419.421 508.815 410.981C508.815 402.54 501.972 395.697 493.531 395.697C485.091 395.697 478.248 402.54 478.248 410.981C478.248 419.421 485.091 426.264 493.531 426.264Z" stroke="#E56D26" stroke-width="20" stroke-linecap="round" stroke-linejoin="round"></path><path d="M568.449 523.359V560.818" stroke="#E56D26" stroke-width="20" stroke-linecap="round" stroke-linejoin="round"></path><path d="M680.826 523.359V560.818" stroke="#E56D26" stroke-width="20" stroke-linecap="round" stroke-linejoin="round"></path><path d="M643.371 523.359V560.818" stroke="#E56D26" stroke-width="20" stroke-linecap="round" stroke-linejoin="round"></path><path d="M605.91 523.359V560.818" stroke="#E56D26" stroke-width="20" stroke-linecap="round" stroke-linejoin="round"></path><path d="M568.449 473.414H680.826" stroke="#E56D26" stroke-width="20" stroke-linecap="round" stroke-linejoin="round"></path><path d="M371.332 486.438C366.053 494.112 358.958 500.361 350.68 504.63" stroke="#E56D26" stroke-width="20" stroke-linecap="round" stroke-linejoin="round"></path></svg>