<svg xmlns="http://www.w3.org/2000/svg" width="865" height="865" viewBox="0 0 865 865" fill="none"><path d="M137.135 249.843C129.619 252.297 116.733 265.489 114.432 273.312C113.205 277.454 112.592 291.26 112.592 312.735V345.716L104.155 346.789C92.65 348.17 76.0832 356.76 68.1066 365.35C64.5785 369.185 59.5164 376.855 56.9087 382.531C52.4602 391.888 52 394.189 52 407.381C52 420.573 52.4602 422.874 56.9087 432.231C63.3513 446.037 72.2483 455.241 85.4404 461.837C91.2695 464.751 97.0985 467.206 98.1723 467.206C99.8597 467.206 100.32 473.495 100.32 501.106C100.32 522.735 100.933 537.308 102.161 541.143C104.308 548.506 113.819 559.704 120.261 562.311C122.716 563.385 124.863 564.919 124.863 565.686C124.863 566.3 119.341 574.276 112.592 583.327C98.9393 601.427 97.7121 605.876 104.155 612.165C107.683 615.847 108.45 616 130.692 616H153.548L184.381 591.457L215.06 566.913H315.075H415.089L445.769 591.457L476.601 616H499.457C521.7 616 522.467 615.847 525.995 612.165C532.437 605.876 531.21 601.427 517.558 583.327C510.809 574.276 505.286 566.3 505.286 565.686C505.286 564.919 507.434 563.385 509.888 562.311C516.331 559.704 525.841 548.506 527.989 541.143C529.216 537.308 529.83 522.735 529.83 501.106C529.83 473.495 530.29 467.206 531.977 467.206C533.051 467.206 538.88 464.751 544.709 461.837C557.901 455.241 566.798 446.037 573.241 432.231C577.689 422.874 578.15 420.573 578.15 407.381C578.15 394.189 577.689 391.888 573.241 382.531C566.645 368.418 557.748 359.368 544.249 352.772C534.585 348.017 531.21 347.096 519.245 346.329L505.286 345.562V312.582C505.286 291.567 504.673 277.454 503.446 273.619C502.525 270.245 498.69 264.109 495.009 260.12C483.197 246.928 496.236 247.849 308.325 248.002C192.051 248.155 140.97 248.616 137.135 249.843ZM476.908 276.227C480.743 279.909 480.743 279.909 480.743 313.042V346.022H472.306C465.25 346.022 463.102 346.636 460.034 349.857L456.199 353.539V408.301C456.199 459.689 456.046 462.91 453.592 461.837C440.86 456.468 439.019 456.468 315.075 456.468C191.131 456.468 189.29 456.468 176.711 461.837C174.104 462.91 173.95 459.689 173.95 408.301V353.539L170.115 349.857C166.74 346.329 165.207 346.022 151.708 346.022H137.135V313.042C137.135 279.909 137.135 279.909 140.97 276.227L144.651 272.392H308.939H473.226L476.908 276.227ZM149.407 440.361V510.31L153.242 513.991L156.923 517.826H315.075H473.226L476.908 513.991L480.743 510.31V440.361V370.566H501.605C527.682 370.566 532.898 371.946 542.868 382.071C550.845 389.894 554.373 397.717 554.373 407.381C554.373 426.249 536.579 444.196 517.711 444.196C514.49 444.196 511.422 445.577 509.121 448.031L505.286 451.712V493.283V534.853L501.451 538.535L497.77 542.37H315.075H132.38L128.698 538.535L124.863 534.853V493.283V451.712L121.028 448.031C118.727 445.577 115.659 444.196 112.438 444.196C102.928 444.196 95.1044 440.668 87.2812 432.691C76.39 421.954 73.3221 410.449 77.6172 396.03C79.9181 388.206 92.8034 375.014 100.32 372.56C103.234 371.64 115.506 370.873 127.624 370.719L149.407 370.566V440.361ZM445.922 486.073C448.99 488.374 451.598 490.982 451.598 491.902C451.598 492.669 400.21 493.283 315.075 493.283C240.064 493.283 178.552 492.669 178.552 492.056C178.552 490.215 183.154 486.227 188.523 483.466C192.664 481.318 206.777 481.011 316.762 481.318L440.4 481.778L445.922 486.073ZM160.451 579.185C150.02 587.622 143.884 591.457 141.123 591.457C137.135 591.457 137.288 591.15 146.339 579.185L155.696 566.913H165.82H175.944L160.451 579.185ZM483.811 579.185C492.861 591.15 493.015 591.457 489.026 591.457C486.265 591.457 480.129 587.622 469.698 579.185L454.205 566.913H464.329H474.454L483.811 579.185Z" fill="#E56D26"></path><path d="M730.012 325.314C726.331 328.842 726.177 329.916 726.177 348.323V367.498L720.041 379.77L713.906 392.041V430.39V468.739H689.362H664.819V458.309L664.972 448.031L683.226 423.641C703.321 396.95 704.702 393.422 697.799 386.672L694.117 382.837H652.547H610.977L607.295 386.672C600.392 393.422 601.773 396.95 621.868 423.641L640.122 448.031L640.275 458.309V468.739H595.023H549.618L545.936 472.574C542.102 476.256 542.102 476.563 542.102 505.555C542.102 534.547 542.102 534.853 545.936 538.535C549.004 541.756 551.152 542.37 558.208 542.37H566.645V575.35C566.645 608.484 566.645 608.484 570.48 612.165C574.008 615.693 575.235 616 590.421 616C599.472 616 608.062 615.233 609.749 614.466C611.437 613.546 620.18 597.746 630.304 577.651L647.945 542.37H677.09H706.236L723.876 577.651C734 597.746 742.744 613.546 744.431 614.466C746.119 615.233 754.709 616 763.759 616C778.946 616 780.173 615.693 783.701 612.165C787.536 608.484 787.536 608.484 787.536 575.35V542.37H795.973C803.029 542.37 805.176 541.756 808.244 538.535C812.079 534.853 812.079 534.547 812.079 505.555C812.079 476.563 812.079 476.256 808.244 472.574C806.25 470.427 803.489 468.739 802.108 468.739C800.114 468.739 799.807 463.984 799.807 430.39V392.041L793.672 379.77L787.536 367.498V348.323C787.536 329.916 787.382 328.842 783.701 325.314C780.173 321.632 779.406 321.479 756.856 321.479C734.307 321.479 733.54 321.632 730.012 325.314ZM762.992 359.828C762.992 373.02 763.299 374.401 769.128 385.905L775.264 398.177V433.458V468.739H756.856H738.449V433.458V398.177L744.585 385.905C750.414 374.401 750.721 373.02 750.721 359.828V346.022H756.856H762.992V359.828ZM659.143 415.051C656.075 419.192 653.007 422.721 652.547 422.721C652.087 422.721 649.019 419.192 645.951 415.051L640.275 407.381H652.547H664.819L659.143 415.051ZM787.536 505.555V517.826H677.09H566.645V505.555V493.283H677.09H787.536V505.555ZM608.062 566.913C600.392 582.253 594.87 591.457 593.489 591.457C591.495 591.457 591.188 587.622 591.188 566.913V542.37H605.761H620.334L608.062 566.913ZM762.992 566.913C762.992 587.622 762.686 591.457 760.691 591.457C759.311 591.457 753.789 582.253 746.119 566.913L733.847 542.37H748.42H762.992V566.913Z" fill="#E56D26"></path></svg>