<svg xmlns="http://www.w3.org/2000/svg" width="865" height="865" viewBox="0 0 865 865" fill="none"><path d="M285.826 615.367L424.518 692.419C426.807 693.691 429.382 694.359 432.001 694.359C434.62 694.359 437.196 693.691 439.484 692.419L578.177 615.367C580.579 614.033 582.581 612.08 583.974 609.712C585.368 607.343 586.103 604.645 586.103 601.897C586.103 599.149 585.368 596.451 583.974 594.083C582.581 591.714 580.579 589.762 578.177 588.427L439.484 511.376C437.195 510.104 434.619 509.437 432 509.437C429.381 509.437 426.806 510.104 424.516 511.376L285.824 588.427C283.422 589.762 281.42 591.714 280.027 594.083C278.633 596.452 277.898 599.15 277.898 601.898C277.899 604.646 278.634 607.344 280.028 609.712C281.421 612.081 283.423 614.033 285.826 615.367ZM432.001 542.474L538.962 601.897L432.001 661.319L325.04 601.897L432.001 542.474Z" fill="#E56D26"></path><path d="M817.257 355.334H709.385C709.385 305.649 679.825 262.766 637.382 243.266C653.184 229.147 663.155 208.63 663.155 185.821C663.155 143.335 628.589 108.77 586.103 108.77C543.617 108.77 509.052 143.335 509.052 185.821C509.052 208.63 519.022 229.147 534.824 243.266C492.381 262.766 462.821 305.649 462.821 355.334H308.719V324.513H370.36C378.871 324.513 385.77 317.612 385.77 309.103V155C385.77 146.491 378.871 139.59 370.36 139.59H139.206C130.695 139.59 123.796 146.491 123.796 155V309.103C123.796 317.612 130.695 324.513 139.206 324.513H200.847V355.334H46.7442C38.2332 355.334 31.334 362.233 31.334 370.744V463.205C31.334 471.715 38.2332 478.616 46.7442 478.616H92.975V740.59C92.975 749.1 99.8742 756 108.385 756H755.616C764.126 756 771.026 749.1 771.026 740.59V478.616H817.257C825.767 478.616 832.667 471.715 832.667 463.205V370.744C832.667 362.233 825.767 355.334 817.257 355.334ZM539.872 185.821C539.872 160.329 560.612 139.59 586.103 139.59C611.595 139.59 632.334 160.329 632.334 185.821C632.334 211.312 611.595 232.052 586.103 232.052C560.612 232.052 539.872 211.312 539.872 185.821ZM586.103 262.872C637.087 262.872 678.565 304.35 678.565 355.334H493.642C493.642 304.35 535.12 262.872 586.103 262.872ZM154.616 170.411H354.949V293.693H154.616V170.411ZM231.667 324.513H277.898V355.334H231.667V324.513ZM123.796 478.616H185.437V725.18H123.796V478.616ZM647.744 478.616V725.18H216.257V478.616H647.744ZM740.206 725.18H678.565V478.616H740.206V725.18ZM801.847 447.795H62.1545V386.154H801.847V447.795Z" fill="#E56D26"></path></svg>