<svg xmlns="http://www.w3.org/2000/svg" width="865" height="865" viewBox="0 0 865 865" fill="none"><path d="M435.654 704.968H477.179C497.211 704.968 513.487 688.68 513.487 668.659V647.564C513.487 643.824 512.002 640.236 509.357 637.592C506.712 634.947 503.125 633.461 499.384 633.461C495.644 633.461 492.057 634.947 489.412 637.592C486.767 640.236 485.281 643.824 485.281 647.564V668.659C485.281 670.809 484.428 672.87 482.908 674.389C481.389 675.909 479.328 676.762 477.179 676.762H435.654C433.505 676.762 431.443 675.909 429.924 674.389C428.404 672.87 427.551 670.809 427.551 668.659V647.564C427.551 643.824 426.065 640.236 423.42 637.592C420.775 634.947 417.188 633.461 413.448 633.461C409.707 633.461 406.12 634.947 403.475 637.592C400.831 640.236 399.345 643.824 399.345 647.564V668.659C399.345 688.681 415.632 704.968 435.654 704.968ZM667.161 704.968H708.686C728.707 704.968 744.995 688.681 744.995 668.659V647.564C744.995 643.824 743.509 640.236 740.864 637.592C738.219 634.947 734.632 633.461 730.892 633.461C727.152 633.461 723.564 634.947 720.92 637.592C718.275 640.236 716.789 643.824 716.789 647.564V668.659C716.789 670.809 715.935 672.87 714.416 674.389C712.896 675.909 710.835 676.762 708.686 676.762H667.161C665.012 676.762 662.951 675.909 661.431 674.389C659.912 672.87 659.058 670.808 659.058 668.659V647.564C659.058 643.824 657.572 640.236 654.927 637.592C652.283 634.947 648.695 633.461 644.955 633.461C641.215 633.461 637.628 634.947 634.983 637.592C632.338 640.236 630.852 643.824 630.852 647.564V668.659C630.852 688.68 647.128 704.968 667.161 704.968Z" fill="#E56D26" stroke="#E56D26" stroke-width="6"></path><path d="M667.16 768.255H708.685C712.426 768.255 716.013 766.769 718.658 764.124C721.302 761.479 722.788 757.892 722.788 754.152V690.865C722.788 687.125 721.302 683.538 718.658 680.893C716.013 678.248 712.426 676.762 708.685 676.762H667.16C663.42 676.762 659.833 678.248 657.188 680.893C654.543 683.538 653.057 687.125 653.057 690.865V754.152C653.057 757.892 654.543 761.479 657.188 764.124C659.833 766.769 663.42 768.255 667.16 768.255ZM694.582 704.968V740.049H681.263V704.968H694.582ZM389.809 661.666H754.54C774.562 661.666 790.849 645.379 790.849 625.358V99.4114C790.849 79.3902 774.562 63.1025 754.54 63.1025H389.809C369.776 63.1025 353.5 79.3909 353.5 99.4114V625.358C353.5 645.378 369.776 661.666 389.809 661.666ZM384.079 93.6817C385.599 92.1621 387.66 91.3084 389.809 91.3084H754.54C756.689 91.3084 758.75 92.1621 760.27 93.6817C761.79 95.2013 762.643 97.2623 762.643 99.4114V625.358C762.643 627.507 761.79 629.568 760.27 631.087C758.75 632.607 756.689 633.461 754.54 633.461H389.809C387.66 633.461 385.599 632.607 384.079 631.087C382.56 629.568 381.706 627.507 381.706 625.358V99.4114C381.706 97.2623 382.56 95.2013 384.079 93.6817Z" fill="#E56D26" stroke="#E56D26" stroke-width="6"></path><path d="M425.803 459.813C425.803 540.523 491.431 606.152 572.108 606.152C652.85 606.152 718.536 540.525 718.536 459.813C718.536 379.102 652.85 313.475 572.108 313.475C491.431 313.475 425.803 379.104 425.803 459.813ZM454.009 459.813C454.009 394.674 506.993 341.68 572.108 341.68C637.304 341.68 690.33 394.677 690.33 459.813C690.33 524.95 637.293 577.947 572.108 577.947C506.993 577.947 454.009 524.953 454.009 459.813ZM496.096 282.457C498.741 285.102 502.328 286.588 506.068 286.588C509.808 286.588 513.396 285.102 516.04 282.457C518.685 279.812 520.171 276.225 520.171 272.485V188.213C520.171 184.473 518.685 180.886 516.04 178.241C513.396 175.596 509.808 174.11 506.068 174.11C502.328 174.11 498.741 175.596 496.096 178.241C493.451 180.886 491.965 184.473 491.965 188.213V272.485C491.965 276.225 493.451 279.812 496.096 282.457ZM628.299 282.457C630.943 285.102 634.531 286.588 638.271 286.588C642.011 286.588 645.598 285.102 648.243 282.457C650.888 279.812 652.374 276.225 652.374 272.485V188.213C652.374 184.473 650.888 180.886 648.243 178.241C645.598 175.596 642.011 174.11 638.271 174.11C634.53 174.11 630.943 175.596 628.299 178.241C625.654 180.886 624.168 184.473 624.168 188.213V272.485C624.168 276.225 625.654 279.812 628.299 282.457ZM562.203 282.457C564.848 285.102 568.435 286.588 572.175 286.588C575.915 286.588 579.502 285.102 582.147 282.457C584.792 279.812 586.278 276.225 586.278 272.485V132.699C586.278 128.958 584.792 125.371 582.147 122.726C579.502 120.082 575.915 118.596 572.175 118.596C568.435 118.596 564.848 120.082 562.203 122.726C559.558 125.371 558.072 128.958 558.072 132.699V272.485C558.072 276.225 559.558 279.812 562.203 282.457ZM429.989 282.457C432.634 285.102 436.221 286.588 439.961 286.588C443.702 286.588 447.289 285.102 449.933 282.457C452.578 279.812 454.064 276.225 454.064 272.485V243.728C454.064 239.988 452.578 236.401 449.933 233.756C447.289 231.111 443.702 229.625 439.961 229.625C436.221 229.625 432.634 231.111 429.989 233.756C427.344 236.401 425.858 239.988 425.858 243.728V272.485C425.858 276.225 427.344 279.812 429.989 282.457ZM694.405 282.457C697.05 285.102 700.637 286.588 704.378 286.588C708.118 286.588 711.705 285.102 714.35 282.457C716.995 279.812 718.481 276.225 718.481 272.485V243.728C718.481 239.988 716.995 236.401 714.35 233.756C711.705 231.111 708.118 229.625 704.378 229.625C700.637 229.625 697.05 231.111 694.405 233.756C691.761 236.401 690.275 239.988 690.275 243.728V272.485C690.275 276.225 691.761 279.812 694.405 282.457Z" fill="#E56D26" stroke="#E56D26" stroke-width="6"></path><path d="M546.416 547.973H546.414C544.195 547.971 542.008 547.444 540.033 546.434C540.033 546.434 540.032 546.434 540.032 546.434L541.397 543.762C530.373 538.169 521.12 529.621 514.674 519.072C508.227 508.524 504.84 496.391 504.891 484.029L546.416 547.973ZM546.416 547.973H546.427C548.886 547.973 551.303 547.33 553.437 546.108C555.571 544.886 557.348 543.127 558.593 541.006C559.837 538.885 560.505 536.475 560.531 534.016C560.557 531.557 559.939 529.134 558.738 526.987L558.737 526.984C557.512 524.801 556.855 522.245 556.855 519.569C556.855 518.886 557.095 517.672 557.758 515.864C558.4 514.115 559.357 512.027 560.588 509.674C562.507 506.006 565.033 501.811 567.917 497.438C571.835 503.057 576.313 507.772 580.048 511.705L580.136 511.798L580.139 511.801C581.691 513.431 583.581 515.419 585.134 517.203C585.912 518.097 586.567 518.896 587.038 519.542C587.252 519.836 587.388 520.046 587.472 520.182C587.379 522.632 586.732 524.949 585.598 526.949L585.594 526.956L585.59 526.963C584.109 529.607 583.518 532.659 583.905 535.665C584.292 538.672 585.637 541.473 587.741 543.656C589.844 545.839 592.595 547.286 595.585 547.784C598.573 548.282 601.642 547.805 604.338 546.423C615.834 540.556 625.481 531.62 632.21 520.606C638.938 509.591 642.486 496.929 642.459 484.022C642.457 475.597 639.154 468.086 634.424 461.131C629.775 454.295 623.574 447.754 617.413 441.255L617.187 441.017L617.184 441.014C602.125 425.179 586.289 408.297 586.289 385.745V385.744C586.288 382.847 585.394 380.02 583.729 377.649C582.065 375.277 579.711 373.476 576.986 372.49C574.262 371.503 571.3 371.38 568.503 372.137C565.708 372.893 563.213 374.491 561.358 376.714C558.312 380.355 543.537 398.301 529.508 419.635C522.494 430.3 515.626 441.872 510.502 452.97C505.411 463.994 501.892 474.86 501.891 484.024L546.416 547.973ZM614.253 484.022V484.018C614.253 483.124 613.907 481.823 612.991 480.058C612.094 478.328 610.769 476.374 609.097 474.232C605.745 469.939 601.267 465.225 596.726 460.448L596.724 460.447L596.473 460.182C585.663 448.801 572.779 435.235 565.039 417.928C556.775 429.279 548.499 441.668 542.061 453.068C538.431 459.497 535.414 465.56 533.312 470.91C531.188 476.317 530.097 480.757 530.097 484.018C530.097 489.966 531.316 495.683 533.575 500.878C536.981 493.326 541.73 485.583 546.386 478.782C552.34 470.085 558.266 462.747 561.354 459.047L614.253 484.022ZM614.253 484.022C614.262 490.623 612.711 497.109 609.756 502.961C607.067 499.181 603.798 495.743 600.756 492.544L600.586 492.365C600.585 492.365 600.585 492.365 600.585 492.365C596.827 488.411 593.237 484.622 590.555 480.575C587.902 476.573 586.278 472.516 586.278 468.085C586.278 464.344 584.792 460.757 582.147 458.113C579.503 455.468 575.916 453.982 572.176 453.982L614.253 484.022ZM223.807 736.195L223.798 736.187C199.601 711.99 186.294 679.855 186.294 645.676V441.049C186.294 437.309 184.808 433.722 182.164 431.077C179.519 428.432 175.932 426.946 172.191 426.946C168.451 426.946 164.864 428.432 162.219 431.077C159.574 433.722 158.088 437.309 158.088 441.049V645.672C158.035 666.192 162.05 686.519 169.903 705.478C177.755 724.433 189.286 741.644 203.831 756.115C218.291 770.687 235.504 782.239 254.469 790.099C273.433 797.958 293.77 801.968 314.298 801.897C347.055 801.937 378.993 791.666 405.587 772.541C432.174 753.421 452.07 726.422 462.459 695.366C463.087 693.609 463.359 691.744 463.26 689.881C463.161 688.005 462.688 686.168 461.869 684.478C461.05 682.787 459.901 681.278 458.491 680.037C457.081 678.797 455.437 677.85 453.656 677.254C451.874 676.657 449.992 676.423 448.119 676.564C446.246 676.704 444.42 677.218 442.748 678.074C441.077 678.93 439.593 680.112 438.384 681.549C437.182 682.978 436.277 684.63 435.719 686.411C418.234 738.619 369.437 773.691 314.298 773.691L314.287 773.691C297.473 773.753 280.814 770.469 265.28 764.032C249.747 757.595 235.649 748.133 223.807 736.195ZM572.175 453.982C570.11 453.981 568.071 454.435 566.201 455.31C564.332 456.185 562.677 457.46 561.356 459.046L572.175 453.982Z" fill="#E56D26" stroke="#E56D26" stroke-width="6"></path><path d="M124.225 407.185L124.225 407.188C124.237 419.905 129.295 432.098 138.287 441.09C147.279 450.082 159.472 455.14 172.189 455.152H172.194C184.911 455.14 197.104 450.082 206.096 441.09C215.089 432.098 220.146 419.905 220.158 407.188V407.185V285.386C220.158 281.646 218.673 278.059 216.028 275.414C213.383 272.769 209.796 271.283 206.055 271.283C202.315 271.283 198.728 272.769 196.083 275.414C193.438 278.059 191.953 281.646 191.953 285.386V407.185C191.953 418.075 183.081 426.946 172.192 426.946C161.302 426.946 152.43 418.075 152.43 407.185V285.386C152.43 283.534 152.066 281.7 151.357 279.989C150.648 278.278 149.609 276.723 148.3 275.414C146.99 274.104 145.436 273.065 143.725 272.357C142.013 271.648 140.18 271.283 138.328 271.283C136.476 271.283 134.642 271.648 132.931 272.357C131.22 273.065 129.665 274.104 128.355 275.414C127.046 276.723 126.007 278.278 125.298 279.989C124.589 281.7 124.225 283.534 124.225 285.386L124.225 407.185Z" fill="#E56D26" stroke="#E56D26" stroke-width="6"></path><path d="M74.1504 208.554C74.1504 262.617 118.129 306.595 172.192 306.595C226.254 306.595 270.233 262.617 270.233 208.554C270.233 154.491 226.254 110.513 172.192 110.513C118.129 110.513 74.1504 154.491 74.1504 208.554ZM102.356 208.554C102.356 170.051 133.689 138.719 172.192 138.719C210.694 138.719 242.027 170.051 242.027 208.554C242.027 247.057 210.705 278.389 172.192 278.389C133.678 278.389 102.356 247.057 102.356 208.554Z" fill="#E56D26" stroke="#E56D26" stroke-width="6"></path><path d="M172.192 263.624C170.741 263.606 169.307 263.305 167.973 262.736C166.64 262.181 165.419 261.403 164.309 260.404C163.275 259.37 162.457 258.141 161.904 256.787C161.351 255.433 161.074 253.983 161.089 252.521C161.089 249.634 162.31 246.748 164.309 244.638C164.864 244.194 165.419 243.639 165.974 243.306C166.64 242.862 167.306 242.528 167.973 242.306C168.639 241.973 169.305 241.751 170.082 241.64C171.414 241.307 172.958 241.307 174.412 241.64C175.078 241.751 175.734 241.973 176.411 242.306C177.077 242.528 177.743 242.862 178.409 243.306C178.964 243.639 179.52 244.194 180.075 244.638C181.074 245.748 181.851 246.859 182.406 248.302C183.267 250.322 183.505 252.553 183.09 254.709C182.674 256.865 181.624 258.848 180.075 260.404C178.964 261.403 177.743 262.181 176.411 262.736C175.076 263.305 173.643 263.606 172.192 263.624ZM172.192 219.656C170.748 219.656 169.305 219.323 167.973 218.768C166.64 218.213 165.419 217.436 164.309 216.437C163.309 215.326 162.532 214.105 161.977 212.773C161.403 211.439 161.101 210.005 161.089 208.553C161.089 205.667 162.31 202.78 164.309 200.67L165.974 199.338C166.64 198.894 167.306 198.561 167.973 198.339C168.639 198.006 169.305 197.784 170.082 197.673C171.414 197.339 172.958 197.339 174.412 197.673C175.078 197.784 175.734 198.006 176.411 198.339C177.077 198.561 177.743 198.894 178.409 199.338L180.075 200.67C182.073 202.78 183.295 205.667 183.295 208.553C183.277 210.004 182.975 211.438 182.406 212.773C181.851 214.105 181.074 215.326 180.075 216.437C178.964 217.436 177.743 218.213 176.411 218.768C175.078 219.323 173.635 219.656 172.192 219.656ZM172.192 175.689C170.748 175.689 169.305 175.356 167.973 174.8C166.627 174.238 165.388 173.45 164.309 172.469C163.309 171.359 162.532 170.137 161.977 168.805C161.403 167.472 161.101 166.037 161.089 164.586C161.089 163.809 161.2 163.142 161.311 162.365C161.411 161.699 161.644 161.033 161.977 160.367C162.199 159.7 162.532 159.034 162.976 158.368L164.309 156.703C164.864 156.259 165.419 155.703 165.974 155.37C166.64 154.926 167.306 154.593 167.973 154.371C168.639 154.038 169.305 153.816 170.082 153.705C171.414 153.372 172.958 153.372 174.412 153.705C175.078 153.816 175.734 154.038 176.411 154.371C177.077 154.593 177.743 154.926 178.409 155.37C178.964 155.703 179.52 156.259 180.075 156.703C182.073 158.812 183.295 161.588 183.295 164.586C183.277 166.037 182.975 167.47 182.406 168.805C181.851 170.137 181.074 171.359 180.075 172.469C178.964 173.468 177.743 174.245 176.411 174.8C175.078 175.356 173.635 175.689 172.192 175.689ZM128.224 219.656C125.226 219.656 122.451 218.546 120.341 216.325C119.34 215.304 118.549 214.097 118.009 212.773C117.435 211.439 117.133 210.005 117.121 208.553C117.121 207.11 117.443 205.667 118.009 204.334C118.564 203.002 119.342 201.781 120.341 200.67C124.449 196.562 131.999 196.562 136.107 200.67C137.106 201.781 137.884 203.002 138.439 204.334C138.994 205.667 139.327 207.11 139.327 208.553C139.309 210.004 139.008 211.438 138.439 212.773C137.616 214.807 136.204 216.549 134.384 217.776C132.564 219.002 130.419 219.657 128.224 219.656ZM216.159 219.656C214.697 219.671 213.247 219.394 211.893 218.841C210.54 218.288 209.31 217.471 208.276 216.437C207.277 215.326 206.5 214.105 205.945 212.773C205.32 211.456 205.016 210.01 205.056 208.553C205.056 205.667 206.267 202.78 208.276 200.67C208.831 200.226 209.387 199.671 209.942 199.338C210.608 198.894 211.274 198.561 211.94 198.339C212.606 198.006 213.273 197.784 213.939 197.673C217.603 196.895 221.489 198.117 223.931 200.67C226.041 202.78 227.262 205.667 227.262 208.553C227.245 210.004 226.943 211.438 226.374 212.773C225.819 214.105 225.042 215.326 223.931 216.437C221.933 218.546 219.157 219.656 216.159 219.656ZM141.103 250.745C139.641 250.759 138.191 250.482 136.837 249.93C135.483 249.377 134.253 248.56 133.219 247.526C132.185 246.492 131.368 245.262 130.815 243.908C130.263 242.554 129.986 241.104 130.001 239.642C130.001 238.198 130.223 236.755 130.778 235.423C131.444 234.09 132.221 232.869 133.22 231.759C134.331 230.759 135.441 229.982 136.873 229.427C139.538 228.206 142.647 228.206 145.311 229.427C146.666 229.966 147.896 230.776 148.927 231.807C149.958 232.838 150.768 234.068 151.307 235.423C151.862 236.755 152.195 238.198 152.195 239.642C152.195 242.639 151.085 245.415 148.864 247.525C146.866 249.634 144.101 250.745 141.103 250.745ZM203.28 188.568C201.837 188.568 200.393 188.235 199.061 187.68C197.728 187.125 196.507 186.348 195.397 185.348C194.398 184.238 193.62 183.017 193.065 181.684C192.51 180.352 192.177 178.909 192.177 177.465C192.177 176.022 192.51 174.578 193.065 173.246C193.62 171.914 194.398 170.692 195.397 169.582C196.507 168.583 197.728 167.806 199.061 167.25C203.047 165.474 208.054 166.473 211.163 169.582C212.162 170.581 212.939 171.914 213.495 173.246C214.05 174.578 214.383 176.022 214.383 177.465C214.383 178.909 214.05 180.352 213.495 181.684C212.939 183.017 212.162 184.238 211.163 185.348C210.129 186.382 208.9 187.2 207.546 187.753C206.192 188.305 204.742 188.583 203.28 188.568ZM141.103 188.568C139.649 188.568 138.217 188.235 136.873 187.68C135.43 187.125 134.32 186.348 133.209 185.348C132.21 184.238 131.322 183.017 130.767 181.684C130.322 180.352 129.989 178.909 129.989 177.465C129.989 176.022 130.322 174.578 130.878 173.246C131.433 171.914 132.21 170.692 133.209 169.582C134.771 168.041 136.753 166.998 138.907 166.583C141.061 166.168 143.289 166.4 145.311 167.25C146.644 167.806 147.865 168.583 148.975 169.582C149.975 170.692 150.752 171.914 151.307 173.246C151.973 174.578 152.195 176.022 152.195 177.465C152.195 178.909 151.973 180.352 151.307 181.684C150.752 183.017 149.975 184.238 148.975 185.348C146.866 187.347 144.101 188.568 141.103 188.568ZM203.28 250.745C201.818 250.759 200.368 250.482 199.014 249.929C197.66 249.376 196.431 248.559 195.397 247.525C194.398 246.414 193.62 245.193 193.065 243.861C192.51 242.528 192.177 241.085 192.177 239.642C192.177 238.198 192.51 236.755 193.065 235.423C193.62 233.979 194.398 232.869 195.397 231.759C197.939 229.205 201.837 227.984 205.501 228.761C206.167 228.872 206.833 229.094 207.499 229.427C208.165 229.649 208.831 229.982 209.498 230.426C210.053 230.759 210.608 231.314 211.163 231.759C212.162 232.869 212.939 233.979 213.495 235.423C214.36 237.442 214.6 239.674 214.185 241.831C213.769 243.988 212.717 245.971 211.163 247.525C210.053 248.524 208.831 249.301 207.499 249.856C206.167 250.412 204.723 250.745 203.28 250.745Z" fill="#E56D26"></path></svg>