<svg xmlns="http://www.w3.org/2000/svg" viewBox="0 0 200 200" fill="none"><defs><radialGradient id="g" cx="50%" cy="50%" r="50%"><stop offset="0%" stop-color="#fef9f1" stop-opacity="0.9"/><stop offset="100%" stop-color="#f3ddaf" stop-opacity="0.25"/></radialGradient></defs><circle cx="100" cy="100" r="96" fill="url(#g)" stroke="#d9b984" stroke-opacity="0.4" stroke-width="2"/><path d="M100 24c-6 10-12 20-12 34 0 20 12 34 12 34s12-14 12-34c0-14-6-24-12-34z" fill="none" stroke="#d9b984" stroke-width="2" stroke-opacity="0.5"/><path d="M100 24c-18 4-34 12-46 28-14 18-16 36-12 52 14-6 26-14 36-26-8 16-12 32-12 48 10-6 20-12 24-20 4 8 14 14 24 20 0-16-4-32-12-48 10 12 22 20 36 26 4-16 2-34-12-52-12-16-28-24-46-28z" fill="none" stroke="#d9b984" stroke-width="2" stroke-opacity="0.3"/></svg>