<svg xmlns="http://www.w3.org/2000/svg" width="865" height="865" viewBox="0 0 865 865" fill="none"><path d="M773.233 550.727H721.978C739.049 536.987 751.436 518.284 757.43 497.199C763.423 476.115 762.728 453.689 755.44 433.016C748.151 412.344 734.629 394.445 716.74 381.79C698.851 369.134 677.476 362.347 655.567 362.364H627.844C644.915 348.623 657.303 329.92 663.296 308.836C669.29 287.751 668.595 265.325 661.306 244.653C654.018 223.98 640.496 206.081 622.607 193.426C604.717 180.771 583.343 173.983 561.433 174H302.567C280.657 173.983 259.283 180.771 241.393 193.426C223.504 206.081 209.982 223.98 202.694 244.653C195.405 265.325 194.71 287.751 200.704 308.836C206.697 329.92 219.085 348.623 236.156 362.364H208.433C186.524 362.347 165.149 369.134 147.26 381.79C129.371 394.445 115.849 412.344 108.56 433.016C101.272 453.689 100.576 476.115 106.57 497.199C112.564 518.284 124.951 536.987 142.022 550.727H90.7667C87.646 550.727 84.6531 551.968 82.4464 554.175C80.2397 556.383 79 559.378 79 562.5V633.136C79 636.259 80.2397 639.253 82.4464 641.461C84.6531 643.669 87.646 644.909 90.7667 644.909H102.533V680.227C102.533 683.35 103.773 686.344 105.98 688.552C108.186 690.76 111.179 692 114.3 692H161.367C164.487 692 167.48 690.76 169.687 688.552C171.894 686.344 173.133 683.35 173.133 680.227V644.909H690.867V680.227C690.867 683.35 692.106 686.344 694.313 688.552C696.52 690.76 699.513 692 702.633 692H749.7C752.821 692 755.814 690.76 758.02 688.552C760.227 686.344 761.467 683.35 761.467 680.227V644.909H773.233C776.354 644.909 779.347 643.669 781.554 641.461C783.76 639.253 785 636.259 785 633.136V562.5C785 559.378 783.76 556.383 781.554 554.175C779.347 551.968 776.354 550.727 773.233 550.727ZM734.403 444.584C729.374 461.611 718.983 476.557 704.777 487.197C690.572 497.838 673.312 503.603 655.567 503.636C646.205 503.636 637.226 499.915 630.606 493.292C623.986 486.668 620.267 477.685 620.267 468.318C620.267 458.951 623.986 449.968 630.606 443.344C637.226 436.721 646.205 433 655.567 433H679.1C682.221 433 685.214 434.24 687.42 436.448C689.627 438.656 690.867 441.65 690.867 444.773C690.867 447.895 689.627 450.889 687.42 453.097C685.214 455.305 682.221 456.545 679.1 456.545H655.567C652.446 456.545 649.453 457.786 647.246 459.994C645.04 462.201 643.8 465.196 643.8 468.318C643.8 471.44 645.04 474.435 647.246 476.643C649.453 478.851 652.446 480.091 655.567 480.091H679.1C688.462 480.091 697.441 476.37 704.061 469.746C710.681 463.123 714.4 454.14 714.4 444.773C714.4 435.406 710.681 426.422 704.061 419.799C697.441 413.176 688.462 409.455 679.1 409.455H655.567C639.963 409.455 624.999 415.656 613.965 426.695C602.932 437.734 596.733 452.707 596.733 468.318C596.733 483.93 602.932 498.902 613.965 509.941C624.999 520.98 639.963 527.182 655.567 527.182C670.47 527.169 685.203 524.01 698.803 517.91C712.402 511.809 724.562 502.906 734.486 491.781C728.85 510.751 716.579 527.058 699.917 537.722C683.254 548.386 663.312 552.695 643.736 549.86C624.16 547.026 606.258 537.238 593.3 522.286C580.343 507.333 573.196 488.214 573.167 468.424C573.137 448.634 580.226 429.494 593.139 414.503C606.052 399.512 623.925 389.67 643.493 386.777C663.06 383.884 683.015 388.133 699.709 398.747C716.403 409.361 728.711 425.632 734.403 444.584ZM384.933 468.318C384.951 448.559 392.064 429.463 404.977 414.512C417.889 399.561 435.741 389.749 455.279 386.866C474.817 383.982 494.741 388.218 511.418 398.802C528.096 409.386 540.417 425.613 546.137 444.525C541.141 461.577 530.761 476.551 516.55 487.206C502.338 497.862 485.059 503.626 467.3 503.636C457.938 503.636 448.959 499.915 442.339 493.292C435.719 486.668 432 477.685 432 468.318C432 458.951 435.719 449.968 442.339 443.344C448.959 436.721 457.938 433 467.3 433H490.833C493.954 433 496.947 434.24 499.154 436.448C501.36 438.656 502.6 441.65 502.6 444.773C502.6 447.895 501.36 450.889 499.154 453.097C496.947 455.305 493.954 456.545 490.833 456.545H467.3C464.179 456.545 461.186 457.786 458.98 459.994C456.773 462.201 455.533 465.196 455.533 468.318C455.533 471.44 456.773 474.435 458.98 476.643C461.186 478.851 464.179 480.091 467.3 480.091H490.833C500.195 480.091 509.174 476.37 515.794 469.746C522.414 463.123 526.133 454.14 526.133 444.773C526.133 435.406 522.414 426.422 515.794 419.799C509.174 413.176 500.195 409.455 490.833 409.455H467.3C451.696 409.455 436.732 415.656 425.699 426.695C414.665 437.734 408.467 452.707 408.467 468.318C408.467 483.93 414.665 498.902 425.699 509.941C436.732 520.98 451.696 527.182 467.3 527.182C482.184 527.172 496.899 524.021 510.483 517.936C524.068 511.85 536.217 502.966 546.137 491.864C540.423 510.757 528.122 526.97 511.471 537.556C494.819 548.141 474.923 552.395 455.401 549.543C435.88 546.692 418.029 536.925 405.097 522.019C392.165 507.112 385.01 488.057 384.933 468.318ZM589.156 385.909C577.643 395.238 568.202 406.865 561.433 420.05C554.665 406.865 545.223 395.238 533.711 385.909H589.156ZM561.433 516.586C568.202 529.771 577.643 541.399 589.156 550.727H533.711C545.223 541.399 554.665 529.771 561.433 516.586ZM640.27 256.15C635.263 273.196 624.88 288.164 610.672 298.819C596.463 309.475 579.19 315.247 561.433 315.273C552.071 315.273 543.093 311.552 536.472 304.928C529.852 298.305 526.133 289.322 526.133 279.955C526.133 270.588 529.852 261.604 536.472 254.981C543.093 248.357 552.071 244.636 561.433 244.636H584.967C588.087 244.636 591.08 245.877 593.287 248.085C595.494 250.292 596.733 253.287 596.733 256.409C596.733 259.531 595.494 262.526 593.287 264.734C591.08 266.942 588.087 268.182 584.967 268.182H561.433C558.313 268.182 555.32 269.422 553.113 271.63C550.906 273.838 549.667 276.832 549.667 279.955C549.667 283.077 550.906 286.071 553.113 288.279C555.32 290.487 558.313 291.727 561.433 291.727H584.967C594.329 291.727 603.307 288.006 609.928 281.383C616.548 274.759 620.267 265.776 620.267 256.409C620.267 247.042 616.548 238.059 609.928 231.435C603.307 224.812 594.329 221.091 584.967 221.091H561.433C545.83 221.091 530.865 227.293 519.832 238.332C508.798 249.371 502.6 264.343 502.6 279.955C502.6 295.566 508.798 310.538 519.832 321.577C530.865 332.617 545.83 338.818 561.433 338.818C576.329 338.815 591.056 335.667 604.653 329.581C618.25 323.495 630.41 314.608 640.341 303.5C634.694 322.464 622.416 338.762 605.75 349.415C589.084 360.069 569.143 364.367 549.57 361.525C529.998 358.682 512.102 348.889 499.151 333.934C486.201 318.979 479.061 299.861 479.036 280.073C479.011 260.286 486.104 241.15 499.017 226.163C511.93 211.175 529.802 201.337 549.367 198.446C568.932 195.555 588.884 199.803 605.577 210.415C622.269 221.028 634.588 237.295 640.282 256.244L640.27 256.15ZM220.2 279.955C220.225 258.106 228.911 237.159 244.352 221.71C259.794 206.261 280.729 197.57 302.567 197.545H495.022C482.696 207.45 472.749 219.996 465.914 234.259C459.079 248.521 455.531 264.137 455.531 279.955C455.531 295.772 459.079 311.388 465.914 325.65C472.749 339.913 482.696 352.459 495.022 362.364H302.567C280.729 362.339 259.794 353.648 244.352 338.199C228.911 322.75 220.225 301.803 220.2 279.955ZM126.067 468.318C126.092 446.47 134.777 425.523 150.219 410.074C165.66 394.624 186.596 385.934 208.433 385.909H400.889C388.563 395.814 378.615 408.36 371.781 422.622C364.946 436.885 361.397 452.501 361.397 468.318C361.397 484.136 364.946 499.751 371.781 514.014C378.615 528.277 388.563 540.823 400.889 550.727H208.433C186.596 550.702 165.66 542.012 150.219 526.563C134.777 511.113 126.092 490.167 126.067 468.318ZM149.6 668.455H126.067V644.909H149.6V668.455ZM737.933 668.455H714.4V644.909H737.933V668.455ZM761.467 621.364H102.533V574.273H761.467V621.364Z" fill="#E56D26"></path></svg>