<svg width="116" height="115" viewBox="0 0 116 115" fill="none" xmlns="http://www.w3.org/2000/svg">
<path d="M67.7715 1.42676H67.7734C90.0111 5.45487 107.759 22.392 112.973 44.1963L112.974 44.1973C112.975 44.2035 112.974 44.2066 112.974 44.208C112.973 44.2105 112.971 44.2151 112.967 44.2197C112.963 44.2243 112.958 44.2271 112.954 44.2285C112.951 44.2295 112.947 44.2305 112.94 44.2295H112.939C103.906 42.825 94.8567 41.7991 85.791 41.1328H85.79C85.7857 41.1324 85.7813 41.1306 85.7773 41.1279L85.7676 41.1162L67.7461 1.46777L67.7451 1.4668C67.7428 1.46174 67.7424 1.4584 67.7422 1.45703C67.742 1.45558 67.742 1.45373 67.7422 1.45215C67.7428 1.44844 67.7452 1.44272 67.75 1.43652C67.755 1.43005 67.7599 1.4275 67.7617 1.42676L67.7637 1.42578C67.7646 1.42572 67.7673 1.42599 67.7715 1.42676Z" fill="#032D88" stroke="#00338D"/>
<path d="M23.959 51.3174C28.5937 50.86 33.1855 50.8464 37.2129 51.6104C41.2414 52.3746 44.6644 53.9085 47.0176 56.5098L47.0674 56.5654L47.1309 56.6025C47.1323 56.6034 47.1344 56.6053 47.1377 56.6074C47.1468 56.6133 47.1631 56.6239 47.1855 56.6396C47.2304 56.6712 47.3009 56.7235 47.3936 56.7998C47.579 56.9525 47.8536 57.2026 48.1865 57.5771C48.852 58.3258 49.7553 59.5773 50.6553 61.5586C52.4561 65.5231 54.2454 72.4165 54.0723 84.0518C53.8994 95.6458 53.9013 106.455 53.9453 114.413C38.4156 113.452 24.5651 106.274 14.8613 95.334L33.3232 55.6318L33.6533 54.9209H22.9902L22.8564 55.2139L8.51953 86.6826C3.42684 78.1499 0.500026 68.1733 0.5 57.5137C0.5 57.1688 0.504527 56.823 0.511719 56.4785C5.73997 54.8003 14.8885 52.2125 23.959 51.3174Z" fill="#032D88" stroke="#00338D"/>
<path d="M78.0713 51.6416C82.0299 50.8674 86.545 50.8543 91.1162 51.2822C100.066 52.1202 109.145 54.6416 114.508 56.3428C114.516 56.7313 114.521 57.1202 114.521 57.5146C114.521 68.1355 111.616 78.0765 106.559 86.5889L92.2637 55.2178L92.1299 54.9248H81.4668L81.7979 55.6357L100.225 95.2676C90.6065 106.149 76.8917 113.326 61.498 114.386C61.5447 106.433 61.5466 95.6314 61.3711 84.0557C61.1952 72.4193 62.9847 65.5254 64.7861 61.5605C65.6865 59.5789 66.5909 58.3268 67.2568 57.5781C67.5899 57.2038 67.8643 56.9544 68.0498 56.8018C68.1424 56.7255 68.2129 56.6732 68.2578 56.6416C68.2802 56.6258 68.2965 56.6153 68.3057 56.6094C68.308 56.6079 68.3091 56.6054 68.3105 56.6045L68.3115 56.6055L68.376 56.5664L68.4258 56.5117C70.7478 53.9441 74.1116 52.4161 78.0713 51.6416ZM68.3145 56.6035L68.3125 56.6045L68.3135 56.6035H68.3145Z" fill="#032D88" stroke="#00338D"/>
<path d="M57.5195 0.5C57.7133 0.5 57.9057 0.500231 58.0947 0.50293C58.268 0.505371 58.4237 0.596316 58.5088 0.735352L58.541 0.797852L75.1816 40.5117C63.4586 40.0061 51.7158 40.0837 39.9434 40.71L56.4053 0.804688C56.4808 0.623048 56.6512 0.5077 56.833 0.504883C57.0624 0.502119 57.2913 0.5 57.5195 0.5Z" fill="#032D88" stroke="#00338D"/>
<path d="M47.2295 1.43848C47.2331 1.43993 47.2383 1.44405 47.2432 1.4502C47.2479 1.45625 47.2496 1.46139 47.25 1.46387C47.2501 1.46481 47.2501 1.46575 47.25 1.4668C47.2498 1.4679 47.2493 1.47142 47.2471 1.47656L29.0381 41.4258C29.0355 41.4314 29.0318 41.4349 29.0283 41.4375L29.0127 41.4434C20.0324 42.1758 11.0412 43.2171 2.03418 44.5547L2.0332 44.5557C2.02683 44.5566 2.02316 44.5556 2.02051 44.5547C2.01679 44.5533 2.01222 44.5497 2.00781 44.5449C2.00363 44.5404 2.00075 44.5367 2 44.5342C1.99961 44.5328 1.99962 44.5301 2.00098 44.5244V44.5225C7.1076 22.5814 24.8919 5.5103 47.2119 1.43848H47.2129C47.2189 1.43738 47.2229 1.43733 47.2246 1.4375C47.2263 1.4377 47.228 1.43788 47.2295 1.43848Z" fill="#032D88" stroke="#00338D"/>
</svg>
