<svg width="671" height="131" viewBox="0 0 671 131" fill="none" xmlns="http://www.w3.org/2000/svg">
<path d="M67.7715 7.94629H67.7734C90.0111 11.9744 107.759 28.9115 112.973 50.7158L112.974 50.7168C112.975 50.723 112.974 50.7262 112.974 50.7275C112.973 50.7301 112.971 50.7346 112.967 50.7393C112.963 50.7438 112.958 50.7467 112.954 50.748C112.951 50.749 112.947 50.7501 112.94 50.749H112.939C103.906 49.3445 94.8567 48.3186 85.791 47.6523H85.79C85.7857 47.652 85.7813 47.6502 85.7773 47.6475L85.7676 47.6357L67.7461 7.9873L67.7451 7.98633C67.7428 7.98127 67.7424 7.97793 67.7422 7.97656C67.742 7.97511 67.742 7.97326 67.7422 7.97168C67.7428 7.96797 67.7452 7.96226 67.75 7.95605C67.755 7.94958 67.7599 7.94703 67.7617 7.94629L67.7637 7.94531C67.7646 7.94525 67.7673 7.94552 67.7715 7.94629Z" fill="#032D88" stroke="#00338D"/>
<path d="M23.959 57.8369C28.5937 57.3795 33.1855 57.366 37.2129 58.1299C41.2414 58.8941 44.6644 60.428 47.0176 63.0293L47.0674 63.085L47.1309 63.1221C47.1323 63.123 47.1344 63.1248 47.1377 63.127C47.1468 63.1329 47.1631 63.1434 47.1855 63.1592C47.2304 63.1907 47.3009 63.2431 47.3936 63.3193C47.579 63.472 47.8536 63.7221 48.1865 64.0967C48.852 64.8453 49.7553 66.0969 50.6553 68.0781C52.4561 72.0427 54.2454 78.9361 54.0723 90.5713C53.8994 102.165 53.9013 112.974 53.9453 120.933C38.4156 119.972 24.5651 112.794 14.8613 101.854L33.3232 62.1514L33.6533 61.4404H22.9902L22.8564 61.7334L8.51953 93.2021C3.42684 84.6694 0.500026 74.6928 0.5 64.0332C0.5 63.6884 0.504527 63.3425 0.511719 62.998C5.73997 61.3199 14.8885 58.7321 23.959 57.8369Z" fill="#032D88" stroke="#00338D"/>
<path d="M78.0713 58.1611C82.0299 57.3869 86.545 57.3738 91.1162 57.8018C100.066 58.6397 109.145 61.1611 114.508 62.8623C114.516 63.2509 114.521 63.6397 114.521 64.0342C114.521 74.655 111.616 84.596 106.559 93.1084L92.2637 61.7373L92.1299 61.4443H81.4668L81.7979 62.1553L100.225 101.787C90.6065 112.669 76.8917 119.846 61.498 120.905C61.5447 112.953 61.5466 102.151 61.3711 90.5752C61.1952 78.9388 62.9847 72.0449 64.7861 68.0801C65.6865 66.0984 66.5909 64.8463 67.2568 64.0977C67.5899 63.7233 67.8643 63.4739 68.0498 63.3213C68.1424 63.2451 68.2129 63.1927 68.2578 63.1611C68.2802 63.1454 68.2965 63.1348 68.3057 63.1289C68.308 63.1274 68.3091 63.1249 68.3105 63.124L68.3115 63.125L68.376 63.0859L68.4258 63.0312C70.7478 60.4637 74.1116 58.9356 78.0713 58.1611ZM68.3145 63.123L68.3125 63.124L68.3135 63.123H68.3145Z" fill="#032D88" stroke="#00338D"/>
<path d="M57.5195 7.01953C57.7133 7.01953 57.9057 7.01976 58.0947 7.02246C58.268 7.0249 58.4237 7.11585 58.5088 7.25488L58.541 7.31738L75.1816 47.0312C63.4586 46.5256 51.7158 46.6032 39.9434 47.2295L56.4053 7.32422C56.4808 7.14258 56.6512 7.02723 56.833 7.02441C57.0624 7.02165 57.2913 7.01953 57.5195 7.01953Z" fill="#032D88" stroke="#00338D"/>
<path d="M47.2295 7.95801C47.2331 7.95946 47.2383 7.96358 47.2432 7.96973C47.2479 7.97578 47.2496 7.98092 47.25 7.9834C47.2501 7.98434 47.2501 7.98528 47.25 7.98633C47.2498 7.98743 47.2493 7.99095 47.2471 7.99609L29.0381 47.9453C29.0355 47.9509 29.0318 47.9545 29.0283 47.957L29.0127 47.9629C20.0324 48.6954 11.0412 49.7367 2.03418 51.0742L2.0332 51.0752C2.02683 51.0761 2.02316 51.0752 2.02051 51.0742C2.01679 51.0729 2.01222 51.0692 2.00781 51.0645C2.00363 51.0599 2.00075 51.0562 2 51.0537C1.99961 51.0523 1.99962 51.0497 2.00098 51.0439V51.042C7.1076 29.1009 24.8919 12.0298 47.2119 7.95801H47.2129C47.2189 7.95691 47.2229 7.95686 47.2246 7.95703C47.2263 7.95723 47.228 7.95741 47.2295 7.95801Z" fill="#032D88" stroke="#00338D"/>
<mask id="path-6-outside-1_462_2" maskUnits="userSpaceOnUse" x="150" y="-0.222656" width="521" height="131" fill="black">
<rect fill="white" x="150" y="-0.222656" width="521" height="131"/>
<path d="M205.446 98.2923H189.932V90.2003H189.639C186.127 97.4095 179.101 99.9107 171.491 99.9107C160.367 99.9107 151 93.4371 151 81.5199C151 60.4808 174.125 58.2739 189.932 57.8325V50.9176C189.932 44.0026 188.176 38.1176 180.126 38.1176C173.101 38.1176 169.442 41.9429 169.442 48.8578H153.635C153.635 32.821 165.636 26.6417 180.126 26.6417C194.908 26.6417 205.446 32.2325 205.446 48.4164V98.2923ZM189.932 67.3957C182.175 67.3957 166.807 69.4555 166.807 80.0486C166.807 85.6394 170.027 88.4348 175.442 88.4348C186.273 88.4348 189.932 76.3704 189.932 67.3957Z"/>
<path d="M282.351 63.2762C282.351 78.8716 277.668 99.9107 258.348 99.9107C250.884 99.9107 244.883 96.2325 241.077 89.9061H240.785V129.777H224.539V28.2601H240.785V37.9704H241.077C243.712 31.7911 251.762 26.6417 258.348 26.6417C278.692 26.6417 282.351 46.9452 282.351 63.2762ZM265.081 63.2762C265.081 55.0371 264.349 39.2946 252.933 39.2946C242.687 39.2946 240.785 55.7727 240.785 63.2762C240.785 71.221 241.809 87.2578 252.933 87.2578C264.788 87.2578 265.081 71.8095 265.081 63.2762Z"/>
<path d="M350.263 59.0095H308.989C308.989 73.8693 319.381 88.4348 335.188 88.4348C339.579 88.4348 344.409 87.2578 348.507 85.7865V97.1153C342.213 99.175 335.627 99.9107 329.041 99.9107C304.306 99.9107 293.914 82.6969 293.914 59.598C293.914 39.736 302.988 26.6417 323.772 26.6417C341.481 26.6417 350.263 37.9704 350.263 55.0371V59.0095ZM334.895 49.1521C334.895 41.6486 330.065 37.0877 322.601 37.0877C315.575 37.0877 310.16 42.09 309.428 49.1521H334.895Z"/>
<path d="M426.355 98.2923H407.621L391.082 74.3107L374.397 98.2923H355.809L382.154 61.8049L359.175 28.2601H377.763L391.082 47.3865L404.401 28.2601H422.989L400.449 61.0693L426.355 98.2923Z"/>
<path d="M479.696 39.5888H459.059V72.6923C459.059 80.9314 459.937 88.4348 470.036 88.4348C472.524 88.4348 475.012 87.8463 477.5 87.2578V98.7337C473.11 99.4693 468.572 99.9107 464.181 99.9107C449.984 99.9107 442.813 95.2026 442.813 80.6371V39.5888H429.201V28.2601H442.813V11.6348L459.059 1.77734V28.2601H479.696V39.5888Z"/>
<path d="M546.454 98.2923H530.208V85.198H529.915C526.256 94.0256 519.084 99.9107 509.278 99.9107C495.959 99.9107 490.397 88.8762 490.397 76.8118V28.2601H506.643V68.2785C506.643 71.6624 506.351 80.6371 509.132 83.2854C510.302 84.4624 512.205 84.6095 513.815 84.6095C525.524 84.6095 530.208 67.9842 530.208 58.5681V28.2601H546.454V98.2923Z"/>
<path d="M605.226 43.7084C588.541 43.7084 582.394 51.0647 582.394 67.5429V98.2923H566.147V28.2601H582.394V41.2072H582.686C588.102 31.4969 593.517 26.6417 605.226 26.6417V43.7084Z"/>
<path d="M670 59.0095H628.726C628.726 73.8693 639.118 88.4348 654.925 88.4348C659.316 88.4348 664.146 87.2578 668.244 85.7865V97.1153C661.95 99.175 655.364 99.9107 648.778 99.9107C624.042 99.9107 613.651 82.6969 613.651 59.598C613.651 39.736 622.725 26.6417 643.509 26.6417C661.218 26.6417 670 37.9704 670 55.0371V59.0095ZM654.632 49.1521C654.632 41.6486 649.802 37.0877 642.338 37.0877C635.312 37.0877 629.897 42.09 629.165 49.1521H641.899H654.632Z"/>
</mask>
<path d="M205.446 98.2923H189.932V90.2003H189.639C186.127 97.4095 179.101 99.9107 171.491 99.9107C160.367 99.9107 151 93.4371 151 81.5199C151 60.4808 174.125 58.2739 189.932 57.8325V50.9176C189.932 44.0026 188.176 38.1176 180.126 38.1176C173.101 38.1176 169.442 41.9429 169.442 48.8578H153.635C153.635 32.821 165.636 26.6417 180.126 26.6417C194.908 26.6417 205.446 32.2325 205.446 48.4164V98.2923ZM189.932 67.3957C182.175 67.3957 166.807 69.4555 166.807 80.0486C166.807 85.6394 170.027 88.4348 175.442 88.4348C186.273 88.4348 189.932 76.3704 189.932 67.3957Z" fill="#032D88"/>
<path d="M282.351 63.2762C282.351 78.8716 277.668 99.9107 258.348 99.9107C250.884 99.9107 244.883 96.2325 241.077 89.9061H240.785V129.777H224.539V28.2601H240.785V37.9704H241.077C243.712 31.7911 251.762 26.6417 258.348 26.6417C278.692 26.6417 282.351 46.9452 282.351 63.2762ZM265.081 63.2762C265.081 55.0371 264.349 39.2946 252.933 39.2946C242.687 39.2946 240.785 55.7727 240.785 63.2762C240.785 71.221 241.809 87.2578 252.933 87.2578C264.788 87.2578 265.081 71.8095 265.081 63.2762Z" fill="#032D88"/>
<path d="M350.263 59.0095H308.989C308.989 73.8693 319.381 88.4348 335.188 88.4348C339.579 88.4348 344.409 87.2578 348.507 85.7865V97.1153C342.213 99.175 335.627 99.9107 329.041 99.9107C304.306 99.9107 293.914 82.6969 293.914 59.598C293.914 39.736 302.988 26.6417 323.772 26.6417C341.481 26.6417 350.263 37.9704 350.263 55.0371V59.0095ZM334.895 49.1521C334.895 41.6486 330.065 37.0877 322.601 37.0877C315.575 37.0877 310.16 42.09 309.428 49.1521H334.895Z" fill="#032D88"/>
<path d="M426.355 98.2923H407.621L391.082 74.3107L374.397 98.2923H355.809L382.154 61.8049L359.175 28.2601H377.763L391.082 47.3865L404.401 28.2601H422.989L400.449 61.0693L426.355 98.2923Z" fill="#032D88"/>
<path d="M479.696 39.5888H459.059V72.6923C459.059 80.9314 459.937 88.4348 470.036 88.4348C472.524 88.4348 475.012 87.8463 477.5 87.2578V98.7337C473.11 99.4693 468.572 99.9107 464.181 99.9107C449.984 99.9107 442.813 95.2026 442.813 80.6371V39.5888H429.201V28.2601H442.813V11.6348L459.059 1.77734V28.2601H479.696V39.5888Z" fill="#032D88"/>
<path d="M546.454 98.2923H530.208V85.198H529.915C526.256 94.0256 519.084 99.9107 509.278 99.9107C495.959 99.9107 490.397 88.8762 490.397 76.8118V28.2601H506.643V68.2785C506.643 71.6624 506.351 80.6371 509.132 83.2854C510.302 84.4624 512.205 84.6095 513.815 84.6095C525.524 84.6095 530.208 67.9842 530.208 58.5681V28.2601H546.454V98.2923Z" fill="#032D88"/>
<path d="M605.226 43.7084C588.541 43.7084 582.394 51.0647 582.394 67.5429V98.2923H566.147V28.2601H582.394V41.2072H582.686C588.102 31.4969 593.517 26.6417 605.226 26.6417V43.7084Z" fill="#032D88"/>
<path d="M670 59.0095H628.726C628.726 73.8693 639.118 88.4348 654.925 88.4348C659.316 88.4348 664.146 87.2578 668.244 85.7865V97.1153C661.95 99.175 655.364 99.9107 648.778 99.9107C624.042 99.9107 613.651 82.6969 613.651 59.598C613.651 39.736 622.725 26.6417 643.509 26.6417C661.218 26.6417 670 37.9704 670 55.0371V59.0095ZM654.632 49.1521C654.632 41.6486 649.802 37.0877 642.338 37.0877C635.312 37.0877 629.897 42.09 629.165 49.1521H641.899H654.632Z" fill="#032D88"/>
<path d="M205.446 98.2923H189.932V90.2003H189.639C186.127 97.4095 179.101 99.9107 171.491 99.9107C160.367 99.9107 151 93.4371 151 81.5199C151 60.4808 174.125 58.2739 189.932 57.8325V50.9176C189.932 44.0026 188.176 38.1176 180.126 38.1176C173.101 38.1176 169.442 41.9429 169.442 48.8578H153.635C153.635 32.821 165.636 26.6417 180.126 26.6417C194.908 26.6417 205.446 32.2325 205.446 48.4164V98.2923ZM189.932 67.3957C182.175 67.3957 166.807 69.4555 166.807 80.0486C166.807 85.6394 170.027 88.4348 175.442 88.4348C186.273 88.4348 189.932 76.3704 189.932 67.3957Z" stroke="#00338D" stroke-width="2" mask="url(#path-6-outside-1_462_2)"/>
<path d="M282.351 63.2762C282.351 78.8716 277.668 99.9107 258.348 99.9107C250.884 99.9107 244.883 96.2325 241.077 89.9061H240.785V129.777H224.539V28.2601H240.785V37.9704H241.077C243.712 31.7911 251.762 26.6417 258.348 26.6417C278.692 26.6417 282.351 46.9452 282.351 63.2762ZM265.081 63.2762C265.081 55.0371 264.349 39.2946 252.933 39.2946C242.687 39.2946 240.785 55.7727 240.785 63.2762C240.785 71.221 241.809 87.2578 252.933 87.2578C264.788 87.2578 265.081 71.8095 265.081 63.2762Z" stroke="#00338D" stroke-width="2" mask="url(#path-6-outside-1_462_2)"/>
<path d="M350.263 59.0095H308.989C308.989 73.8693 319.381 88.4348 335.188 88.4348C339.579 88.4348 344.409 87.2578 348.507 85.7865V97.1153C342.213 99.175 335.627 99.9107 329.041 99.9107C304.306 99.9107 293.914 82.6969 293.914 59.598C293.914 39.736 302.988 26.6417 323.772 26.6417C341.481 26.6417 350.263 37.9704 350.263 55.0371V59.0095ZM334.895 49.1521C334.895 41.6486 330.065 37.0877 322.601 37.0877C315.575 37.0877 310.16 42.09 309.428 49.1521H334.895Z" stroke="#00338D" stroke-width="2" mask="url(#path-6-outside-1_462_2)"/>
<path d="M426.355 98.2923H407.621L391.082 74.3107L374.397 98.2923H355.809L382.154 61.8049L359.175 28.2601H377.763L391.082 47.3865L404.401 28.2601H422.989L400.449 61.0693L426.355 98.2923Z" stroke="#00338D" stroke-width="2" mask="url(#path-6-outside-1_462_2)"/>
<path d="M479.696 39.5888H459.059V72.6923C459.059 80.9314 459.937 88.4348 470.036 88.4348C472.524 88.4348 475.012 87.8463 477.5 87.2578V98.7337C473.11 99.4693 468.572 99.9107 464.181 99.9107C449.984 99.9107 442.813 95.2026 442.813 80.6371V39.5888H429.201V28.2601H442.813V11.6348L459.059 1.77734V28.2601H479.696V39.5888Z" stroke="#00338D" stroke-width="2" mask="url(#path-6-outside-1_462_2)"/>
<path d="M546.454 98.2923H530.208V85.198H529.915C526.256 94.0256 519.084 99.9107 509.278 99.9107C495.959 99.9107 490.397 88.8762 490.397 76.8118V28.2601H506.643V68.2785C506.643 71.6624 506.351 80.6371 509.132 83.2854C510.302 84.4624 512.205 84.6095 513.815 84.6095C525.524 84.6095 530.208 67.9842 530.208 58.5681V28.2601H546.454V98.2923Z" stroke="#00338D" stroke-width="2" mask="url(#path-6-outside-1_462_2)"/>
<path d="M605.226 43.7084C588.541 43.7084 582.394 51.0647 582.394 67.5429V98.2923H566.147V28.2601H582.394V41.2072H582.686C588.102 31.4969 593.517 26.6417 605.226 26.6417V43.7084Z" stroke="#00338D" stroke-width="2" mask="url(#path-6-outside-1_462_2)"/>
<path d="M670 59.0095H628.726C628.726 73.8693 639.118 88.4348 654.925 88.4348C659.316 88.4348 664.146 87.2578 668.244 85.7865V97.1153C661.95 99.175 655.364 99.9107 648.778 99.9107C624.042 99.9107 613.651 82.6969 613.651 59.598C613.651 39.736 622.725 26.6417 643.509 26.6417C661.218 26.6417 670 37.9704 670 55.0371V59.0095ZM654.632 49.1521C654.632 41.6486 649.802 37.0877 642.338 37.0877C635.312 37.0877 629.897 42.09 629.165 49.1521H641.899H654.632Z" stroke="#00338D" stroke-width="2" mask="url(#path-6-outside-1_462_2)"/>
</svg>
