<svg width="420" height="900" viewBox="0 0 420 900" fill="none" xmlns="http://www.w3.org/2000/svg">
  <rect width="420" height="900" fill="#F8FAFC"/>
  <rect x="20" y="40" width="380" height="160" rx="26" fill="#FFFFFF" stroke="#E2E8F0"/>
  <text x="40" y="90" font-family="'Inter', Arial" font-size="22" font-weight="600" fill="#0F172A">Availability Overview</text>
  <text x="40" y="120" font-family="'Inter', Arial" font-size="14" fill="#64748B">Dec 2025 • Units left</text>
  <rect x="40" y="135" width="140" height="40" rx="12" fill="#EEF2FF" stroke="#C7D2FE"/>
  <text x="58" y="161" font-family="'Inter', Arial" font-size="14" font-weight="600" fill="#4338CA">Change month</text>
  <rect x="200" y="135" width="180" height="40" rx="12" fill="#F1F5F9" stroke="#E2E8F0"/>
  <text x="218" y="161" font-family="'Inter', Arial" font-size="14" fill="#0F172A">Units left | booked</text>

  <!-- Day pills -->
  <rect x="20" y="220" width="380" height="90" rx="22" fill="#FFFFFF" stroke="#E2E8F0"/>
  <text x="40" y="248" font-family="'Inter', Arial" font-size="14" font-weight="600" fill="#0F172A">Week snapshot</text>
  <g font-family="'Inter', Arial" font-size="12" font-weight="600" fill="#0F172A">
    <rect x="40" y="260" width="46" height="36" rx="12" fill="#DCFCE7" stroke="#BBF7D0"/>
    <text x="53" y="284">Mon 1</text>
    <rect x="94" y="260" width="46" height="36" rx="12" fill="#FEF3C7" stroke="#FDE68A"/>
    <text x="108" y="284">Tue 2</text>
    <rect x="148" y="260" width="46" height="36" rx="12" fill="#FEE2E2" stroke="#FCA5A5"/>
    <text x="162" y="284">Wed 3</text>
    <rect x="202" y="260" width="46" height="36" rx="12" fill="#DCFCE7" stroke="#BBF7D0"/>
    <text x="215" y="284">Thu 4</text>
    <rect x="256" y="260" width="46" height="36" rx="12" fill="#E2E8F0" stroke="#CBD5F5"/>
    <text x="269" y="284">Fri 5</text>
  </g>

  <!-- Room card 1 -->
  <rect x="20" y="330" width="380" height="210" rx="24" fill="#FFFFFF" stroke="#E2E8F0"/>
  <text x="40" y="370" font-family="'Inter', Arial" font-size="18" font-weight="600" fill="#0F172A">Garden Deluxe</text>
  <text x="40" y="395" font-family="'Inter', Arial" font-size="14" fill="#475569">8 units • 3 partial days</text>
  <g>
    <rect x="40" y="410" width="340" height="2" fill="#E2E8F0"/>
    <rect x="40" y="430" width="48" height="48" rx="12" fill="#DCFCE7" stroke="#BBF7D0"/>
    <text x="60" y="460" font-family="'Inter', Arial" font-size="16" font-weight="600" fill="#065F46">6</text>
    <rect x="96" y="430" width="48" height="48" rx="12" fill="#FEF3C7" stroke="#FDE68A"/>
    <text x="116" y="460" font-family="'Inter', Arial" font-size="16" font-weight="600" fill="#92400E">3</text>
    <rect x="152" y="430" width="48" height="48" rx="12" fill="#FEE2E2" stroke="#FCA5A5"/>
    <text x="172" y="460" font-family="'Inter', Arial" font-size="16" font-weight="600" fill="#B91C1C">0</text>
    <rect x="208" y="430" width="48" height="48" rx="12" fill="#E2E8F0" stroke="#CBD5F5"/>
    <path d="M222 444 L242 464" stroke="#475569" stroke-width="2"/>
    <path d="M242 444 L222 464" stroke="#475569" stroke-width="2"/>
  </g>
  <rect x="40" y="490" width="340" height="70" rx="16" fill="#F9FAFB" stroke="#E2E8F0"/>
  <text x="60" y="515" font-family="'Inter', Arial" font-size="14" fill="#0F172A">Next check-in: 12 Jan</text>
  <text x="60" y="535" font-family="'Inter', Arial" font-size="13" fill="#475569">Tap to view guests</text>

  <!-- Room card 2 -->
  <rect x="20" y="560" width="380" height="210" rx="24" fill="#FFFFFF" stroke="#E2E8F0"/>
  <text x="40" y="600" font-family="'Inter', Arial" font-size="18" font-weight="600" fill="#0F172A">Lakefront Villa</text>
  <text x="40" y="625" font-family="'Inter', Arial" font-size="14" fill="#475569">5 units • 1 closed day</text>
  <rect x="40" y="640" width="340" height="2" fill="#E2E8F0"/>
  <rect x="40" y="655" width="48" height="48" rx="12" fill="#E2E8F0" stroke="#CBD5F5"/>
  <path d="M55 670 L73 688" stroke="#475569" stroke-width="2"/>
  <path d="M73 670 L55 688" stroke="#475569" stroke-width="2"/>
  <rect x="96" y="655" width="48" height="48" rx="12" fill="#DCFCE7" stroke="#BBF7D0"/>
  <text x="116" y="685" font-family="'Inter', Arial" font-size="16" font-weight="600" fill="#065F46">2</text>
  <rect x="152" y="655" width="48" height="48" rx="12" fill="#FEF3C7" stroke="#FDE68A"/>
  <text x="172" y="685" font-family="'Inter', Arial" font-size="16" font-weight="600" fill="#92400E">1</text>
  <rect x="208" y="655" width="48" height="48" rx="12" fill="#FEE2E2" stroke="#FCA5A5"/>
  <text x="228" y="685" font-family="'Inter', Arial" font-size="16" font-weight="600" fill="#B91C1C">0</text>

  <!-- Legend chips -->
  <rect x="20" y="790" width="380" height="80" rx="30" fill="#F1F5F9"/>
  <circle cx="60" cy="830" r="8" fill="#DCFCE7" stroke="#10B981" stroke-width="2"/>
  <text x="75" y="834" font-family="'Inter', Arial" font-size="14" fill="#0F172A">Free</text>
  <circle cx="150" cy="830" r="8" fill="#FEF3C7" stroke="#F59E0B" stroke-width="2"/>
  <text x="165" y="834" font-family="'Inter', Arial" font-size="14" fill="#0F172A">Partial</text>
  <circle cx="250" cy="830" r="8" fill="#FEE2E2" stroke="#EF4444" stroke-width="2"/>
  <text x="265" y="834" font-family="'Inter', Arial" font-size="14" fill="#0F172A">Busy</text>
  <circle cx="330" cy="830" r="8" fill="#E2E8F0" stroke="#94A3B8" stroke-width="2"/>
  <text x="345" y="834" font-family="'Inter', Arial" font-size="14" fill="#0F172A">Closed</text>
</svg>
